<svg id="Layer_1" data-name="Layer 1" xmlns="http://www.w3.org/2000/svg" viewBox="0 0 938.13 115.76"><defs><style>.cls-1{fill:#b23025;}.cls-2{fill:#b33226;}.cls-3{fill:#b33227;}.cls-4{fill:#b33125;}.cls-5{fill:#b43429;}.cls-6{fill:#b23024;}.cls-7{fill:#b33328;}.cls-8{fill:#b33126;}.cls-9{fill:#b33428;}</style></defs><title>Business Standard Logo</title><path class="cls-1" d="M74.11,439.14c3.62,1.46,7.21,2.58,10.51,4.29,11.77,6.1,16.48,16.56,14.27,31.14C97.16,486,89,494.37,76.7,496.26c-6.59,1-13.38.82-20.08.94-7.7.14-15.4.08-23.1,0-.93,0-1.85-.88-2.77-1.36.77-.54,1.47-1.38,2.33-1.59,4.39-1.08,6-2.86,6-7.82.1-8.31,0-16.61,0-24.91q0-31.33,0-62.65c0-6.92-.49-7.58-6.89-10.13-.62-.24-1-1.1-1.49-1.67.85-.44,1.7-1.25,2.55-1.26,8.68-.1,17.37-.27,26,0,6.07.2,12.26.43,18.14,1.78,10.35,2.37,16.16,9.49,17.81,19.94C97,418.64,93.93,427.84,84.05,434,80.92,436,77.46,437.43,74.11,439.14ZM59.44,442c0,15,0,29.92,0,44.81a13,13,0,0,0,.62,3.23c.75,2.84,2.59,4.2,5.59,4.26,6.24.13,11.19-3.58,11.8-11.05a154.06,154.06,0,0,0-.08-29.13C76.3,444.2,69.89,440.42,59.44,442Zm-.06-4.21c6.28,1,10.1-.76,12.57-6a17.51,17.51,0,0,0,2-6.22c.42-7.52.65-15.06.62-22.59a25.37,25.37,0,0,0-1.61-7.83c-1.58-4.6-5-7-8.61-6.5-3.21.49-4.88,3.27-4.92,8.7-.07,9.87,0,19.74,0,29.61Z" transform="translate(-30.75 -383.99)"/><path class="cls-2" d="M943.5,435.78V399.11c0-.73,0-1.47,0-2.2-.35-6.06-.87-6.55-7-7.52-.83-.13-1.53-1.08-2.29-1.65.66-.54,1.28-1.48,2-1.55,8.25-.78,16.51-1.44,25.33-2.17v4.64q0,46.54,0,93.09c0,2.08,0,4.16.21,6.22.23,3,1.55,5,4.81,5.54.85.13,1.59,1,2.37,1.55-.87.61-1.7,1.67-2.64,1.77-7.27.81-14.56,1.43-22.14,2.14V487.33c-.78,1.51-1.16,2.11-1.43,2.76-3.59,9-13.34,12-20.88,5.88A29.46,29.46,0,0,1,914,486c-7.39-15.5-7.72-31.34-.65-47.08,2.79-6.21,7-11.27,14.15-12.74s12,.92,15.06,7.72C942.8,434.44,943.08,435,943.5,435.78Zm1.13,27.38-.69-.09a40.76,40.76,0,0,0,0-5.85c-1.1-7.3-2.1-14.64-3.75-21.83-.4-1.71-3.2-4-4.87-4s-3.17,2.67-4.5,4.36a6.8,6.8,0,0,0-.88,3.14,172.43,172.43,0,0,0-.1,43.72,23.42,23.42,0,0,0,2,7c1.7,3.68,5,4,7.45.76a13.28,13.28,0,0,0,2.55-5.57C942.93,477.63,943.72,470.39,944.63,463.16Z" transform="translate(-30.75 -383.99)"/><path class="cls-3" d="M770.67,490.41C766.73,501.34,753.16,501,747,493.8a33.22,33.22,0,0,1-8-16.9c-1.21-7.62-2.65-15.14-1.31-22.86,1.26-7.3,1.83-14.92,7.15-20.75a25.45,25.45,0,0,1,7.27-5.93c7.77-3.77,13.71-1.42,19.42,7.49.09-1.33.21-2.21.21-3.09-.06-11.23-.1-22.46-.21-33.69-.07-6.9-.55-7.37-7.38-8.7-.76-.15-1.37-1-2-1.54.64-.56,1.24-1.55,1.93-1.61,8.36-.81,16.74-1.48,25.64-2.23V485c0,6.14,0,6.12,5.86,8.59a2.81,2.81,0,0,1,1.07,1.48c-.65.67-1.42,1.61-2.24,1.7-7.27.8-14.56,1.45-22.33,2.18v-8.44l.57-3.93-.87-.15Zm1.63-26.67c-.42-6.69-.38-11.73-1.16-16.64a60.51,60.51,0,0,0-3.65-12.91c-.56-1.41-3-2.84-4.54-2.84-1.3,0-3.08,1.85-3.79,3.31a17.15,17.15,0,0,0-1.84,7q-.18,19.72.16,39.45a20.72,20.72,0,0,0,2,7.75c.65,1.48,2.39,3.4,3.68,3.43a6.34,6.34,0,0,0,4.62-2.76,19,19,0,0,0,2.76-7.46C771.39,475.45,771.83,468.77,772.3,463.74Z" transform="translate(-30.75 -383.99)"/><path class="cls-3" d="M694.25,426.4v11.24c.85-1.26,1.32-1.87,1.7-2.53,4.34-7.39,10.6-10.17,18.92-8.39,7.12,1.53,12,7.06,12.47,15.27.52,9,.41,18.07.51,27.1.06,5.87,0,11.73,0,17.6,0,3.73.49,7.24,5.39,7.67.46,0,1.27,1.07,1.16,1.37-.22.61-.95,1.47-1.48,1.47-9.18.09-18.35.07-27.53,0a1.9,1.9,0,0,1-1.36-1.23,1.94,1.94,0,0,1,1-1.61c4-.92,4.23-4,4.24-7.15q.07-21.63,0-43.26c0-1.57.06-3.41-.7-4.64-1.12-1.8-2.68-3.8-4.53-4.52-2.51-1-4.92.57-5.95,3-1.21,2.9-2.57,6-2.68,9-.47,14-.57,28.08-.68,42.12,0,2.4.85,4.52,3.65,5.3.69.19,1.08,1.41,2,2.72h-31l-.68-.75c.72-.68,1.36-1.82,2.17-2,3.74-.64,5.21-3,5.22-6.44q.08-25.11,0-50.22c0-3.43-1.6-5.77-5.16-6.61-.72-.17-1.27-1-1.9-1.59.63-.54,1.24-1.49,1.91-1.54C678.56,427.32,686.24,426.89,694.25,426.4Z" transform="translate(-30.75 -383.99)"/><path class="cls-4" d="M159.12,426.26c0,19.43,0,38.23,0,57,0,1.59,0,3.18.1,4.76.27,2.81,1.58,4.76,4.57,5.43.81.19,1.45,1.14,2.17,1.74-.8.55-1.56,1.49-2.41,1.58-7.39.81-14.8,1.46-22.52,2.19V487.34l-.6-.18c-.39.65-.82,1.28-1.18,1.95-4.24,8-12.19,11.59-21,9.4a12,12,0,0,1-9-9.24,60.74,60.74,0,0,1-1.78-13.35c-.23-12-.07-23.94-.08-35.91,0-6.28-.29-6.62-6.07-9.07-.52-.21-1.19-1.09-1.09-1.47.16-.62.88-1.52,1.42-1.56,7.89-.61,15.78-1.09,24.14-1.64v4.3c0,15.75,0,31.51.05,47.27a31,31,0,0,0,1.09,8.65c.49,1.6,2.3,3.81,3.63,3.89,1.81.1,4.75-1.09,5.42-2.54,1.85-4,3.7-8.43,3.9-12.76.58-12.68.41-25.39.41-38.09,0-3.36-1.87-5.38-5.29-6-.68-.12-1.2-1.11-1.79-1.69.57-.48,1.11-1.33,1.72-1.38C142.85,427.3,150.75,426.81,159.12,426.26Z" transform="translate(-30.75 -383.99)"/><path class="cls-5" d="M503.87,455.63c.62.88,1.58,1.67,1.8,2.64,2,8.57,3.84,17.17,8.66,24.75,4,6.28,8.92,11.31,16.66,12.69,10.66,1.9,19.28-4.57,20.38-15.33,1.15-11.24-2.57-18.51-12.6-23.79-4.64-2.44-9.52-4.42-14.34-6.51-19-8.2-25.37-23-20-45.35a32.65,32.65,0,0,1,3.71-9.12,23.45,23.45,0,0,1,30.67-9.19c3,1.42,5.69,3.32,8.51,5,3.49,2.11,5.12,1.57,6.69-2.28a7,7,0,0,1,.36-1c.77-1.34,1.57-2.65,2.36-4a23.52,23.52,0,0,1,1.05,4.66q.45,17.58.64,35.16c0,1.07-.83,2.15-1.27,3.23a10.64,10.64,0,0,1-1.59-2.9,82.48,82.48,0,0,0-9.06-26.18c-3.72-6.54-11.66-11.43-19-10.81a14.25,14.25,0,0,0-13,11.13c-3.35,13.39.94,22.17,13.61,27.77,5.25,2.32,10.67,4.3,15.76,6.94,13.8,7.17,19.32,19,18.69,34.18-.27,6.41-1.44,12.6-4.6,18.29-7.5,13.52-23.49,17.61-37.35,9.52-2.11-1.23-4.07-2.7-6.15-4-3.49-2.18-5-1.68-6.74,2.18-.54,1.23-.74,2.61-1.33,3.79-.36.72-1.19,1.21-1.81,1.81a6.92,6.92,0,0,1-.89-2.15c-.27-6.22-.53-12.44-.62-18.66-.1-7.3,0-14.6,0-21.9Z" transform="translate(-30.75 -383.99)"/><path class="cls-6" d="M286.4,497.23c-10.4,0-19.67,0-28.94-.06-.6,0-1.2-.79-1.8-1.21.49-.57.91-1.54,1.47-1.62,3.8-.57,4.67-3.41,4.69-6.41q.17-25.1,0-50.2c0-3.19-1-6.05-4.82-6.79a2.1,2.1,0,0,1-1.26-1.66,2.22,2.22,0,0,1,1.63-1.35c7.42-.58,14.85-1,22.55-1.55v11.86a16.31,16.31,0,0,0,1.16-1.62c4.33-8.5,10.56-11.69,19.45-9.94,7.49,1.47,12.54,7.59,12.76,16.61.32,13.31.13,26.63.19,39.94,0,1.82.16,3.65.33,5.47.27,3,1.49,5.08,4.77,5.6.68.11,1.22,1.07,1.83,1.64-.71.43-1.42,1.23-2.13,1.23q-13.21.13-26.41,0c-.72,0-1.42-.83-2.13-1.28.49-.56.89-1.48,1.49-1.65,3.15-.88,3.77-3.38,3.78-6,.07-15.26,0-30.53,0-45.8a6.5,6.5,0,0,0-.68-3.55c-1.11-1.58-2.59-3.83-4.09-4a7.4,7.4,0,0,0-5.83,2.43,16.74,16.74,0,0,0-3.05,8.45c-.53,14.51-.66,29-.82,43.56a4.62,4.62,0,0,0,3.58,4.93C284.85,494.49,285.28,495.72,286.4,497.23Z" transform="translate(-30.75 -383.99)"/><path class="cls-3" d="M830,487.45l-1.92,3.4a16.5,16.5,0,0,1-20.84,7.2c-5.42-2.27-8.62-8.2-8.18-15.46.54-8.62,4.2-15.63,11.93-19.69,5.37-2.81,11.29-4.54,16.87-7,1.13-.5,2.55-2,2.57-3.07a107.41,107.41,0,0,0-.46-14.24c-.43-4.14-2-8-6.59-9.18-4.93-1.22-9.19.73-12.76,3.89-2.31,2.06-.81,3.35,1.59,3.9,3.22.74,6,1.92,7.14,5.48,1.56,5-.77,9.87-5.45,11.11-5.17,1.37-9.78-1.28-10.76-6.56-1.17-6.32.52-11.91,5.44-16.22,7.44-6.53,22.82-7.43,31.09-1.9,4.66,3.11,7.08,7.75,8,13.07a84.44,84.44,0,0,1,1.25,13.09c.18,10.13,0,20.27.07,30.4,0,5.51,1.16,6.3,6.34,4.82.53-.15,1.23.29,1.84.45a5,5,0,0,1-.58,1.86c-4.54,5.21-10.44,6.61-17,5.48-5.56-1-8.12-4.94-9-10.23C830.64,487.91,830.38,487.78,830,487.45Zm.53-28.93c-5.06,1.38-8.65,4-10.4,8.34a29.12,29.12,0,0,0-1.55,18.23,6.41,6.41,0,0,0,3.95,4c1.31.28,3.19-1.55,4.62-2.7a5.64,5.64,0,0,0,1.33-2.57C831.19,475.72,830.71,467.37,830.55,458.52Z" transform="translate(-30.75 -383.99)"/><path class="cls-2" d="M639.64,487.86c-2.06,5.14-5.55,9.66-12.15,11-9.91,2.07-17.68-3.73-18.12-13.79s3.46-17.95,12.46-22.62c5.16-2.68,10.86-4.3,16.25-6.55,1-.42,2.45-1.59,2.45-2.41a124.52,124.52,0,0,0-.67-16c-.69-5.29-3.93-8.23-8.15-8.53-4.59-.33-10.45,2.89-12.25,7.08,1.43.52,2.82,1.08,4.25,1.52,4.76,1.47,6.81,4.75,6.08,9.81a8,8,0,0,1-8.27,6.81c-4.41,0-7.72-3-8.35-7.65a17,17,0,0,1,9.92-18.3,30,30,0,0,1,23.22-.87c6,2.12,9.61,6.76,11,12.78A65.51,65.51,0,0,1,659,453.51c.24,10.25.07,20.51.09,30.77a19.2,19.2,0,0,0,.2,3.64c.68,3.58,2.35,4.37,5.68,2.93a7.41,7.41,0,0,1,2.19-.22c-.17.83-.08,1.87-.56,2.46-4.28,5.37-14.84,7.66-20.37,3.68C643.37,494.7,641.78,490.86,639.64,487.86Zm1.86-28.59-1.59-.55c-5.3,1.53-9.18,4.89-10.46,10.33a63.18,63.18,0,0,0-1.22,13c-.07,3.21.51,6.88,4.54,7.24,3.7.33,5.36-2.93,5.82-5.94C639.82,475.35,640.57,467.3,641.5,459.27Z" transform="translate(-30.75 -383.99)"/><path class="cls-2" d="M372.06,463.33H341.85c-.29,8.09-.84,15.9,2.18,23.31s11.12,9.62,17,4.13c3.73-3.47,6.28-8.21,9.74-12.9.29.37,1.53,1.26,1.45,2-1.24,11.3-14.16,21.11-25.73,19.76A23,23,0,0,1,328,486.78c-9.07-17.43-8.66-34.92,2.2-51.36,9.68-14.67,28.32-13.44,36.77,1.92C371.35,445.26,372.92,453.78,372.06,463.33Zm-30.39-3.16c2.55,0,4.73.16,6.88,0,2.69-.26,5-1.76,5-4.51-.11-7.63-.45-15.27-1.26-22.85-.17-1.62-2.69-3-4.13-4.48-1.38,1.37-3.48,2.52-4,4.17C341.12,441.38,341.48,450.63,341.67,460.17Z" transform="translate(-30.75 -383.99)"/><path class="cls-7" d="M564.45,430.09a7.92,7.92,0,0,1,1.84-1.28c12.35-4.07,18.64-13.11,21-25.41.53-2.74.59-2.73,4-2.41v27c4.29,0,8.18-.09,12.05.07.92,0,1.8.93,2.7,1.43-.87.55-1.7,1.53-2.6,1.59-3.17.19-6.35.13-9.53.05-1.84,0-2.64.61-2.63,2.53.06,16.25,0,32.49.1,48.74a10.9,10.9,0,0,0,.81,4.64c.68,1.36,2,3.19,3.22,3.27a4.75,4.75,0,0,0,3.8-2.59c1.22-4.42,1.77-9,2.73-13.52a9.34,9.34,0,0,1,1.59-2.61c.45.83,1.38,1.73,1.28,2.49-.69,5.54-1,11.23-2.58,16.51-1.89,6.25-6.89,9-13.65,8.92-6.53-.06-11.53-2.82-13.66-9A40.15,40.15,0,0,1,573,478.26c-.23-14.29-.18-28.58,0-42.87,0-3.24-.65-4.83-4.2-4.31a21.22,21.22,0,0,1-4.12-.17C564.58,430.63,564.52,430.36,564.45,430.09Z" transform="translate(-30.75 -383.99)"/><path class="cls-8" d="M858.56,496.23c.68-.67,1.28-1.8,2.06-2,3.7-.68,5.13-3.07,5.21-6.48.15-6.71.28-13.42.28-20.14,0-9.76-.13-19.53-.22-29.29,0-3.81-1.33-6.66-5.57-7.41a2.15,2.15,0,0,1-1.33-1.64,2.22,2.22,0,0,1,1.58-1.41c7.78-.57,15.57-1,23.78-1.53-.33,5.81-.64,11.33-.94,16.85l.59.11c.9-2.7,1.45-5.59,2.81-8,1.63-2.91,3.51-6,6.08-8,5-3.82,11.53-1.65,13.91,4.15a16.61,16.61,0,0,1-.8,15.16,6.25,6.25,0,0,1-6.37,3.46,6.6,6.6,0,0,1-6-4.69c-1.35-3.94-1-7.69,2-10.9.8-.83,1.5-1.75,2.51-2.95-4-1.17-6.57.64-7.66,3.32-2.08,5.15-4.48,10.5-4.89,15.91-.93,12.52-.85,25.12-1,37.68,0,4.15,1.77,5.39,6.39,5.88a9.77,9.77,0,0,1,2.82,1.33c-1,.53-2,1.5-3,1.51-10.5.11-21,.07-31.5.07C859.12,496.9,858.84,496.57,858.56,496.23Z" transform="translate(-30.75 -383.99)"/><path class="cls-9" d="M210.46,425.73A25.53,25.53,0,0,1,211,429c0,5.62.07,11.24,0,16.86a9.52,9.52,0,0,1-1,2.77,16.79,16.79,0,0,1-2-2.49c-2.19-4-3.76-8.55-6.59-12.05-1.87-2.31-5.35-3.79-8.38-4.6a8.33,8.33,0,0,0-9.91,4.4c-1.92,3.67-1.49,8.8,1.7,11.48a47.31,47.31,0,0,0,9,5.43c3.8,1.95,7.86,3.39,11.61,5.41,11.68,6.27,12.32,21.95,7.43,31.72s-16.64,13.75-27.72,9.21c-1.81-.74-3.54-1.65-5.34-2.42-3.7-1.58-4.59-1.18-6.46,2.61a2.78,2.78,0,0,1-2.21,1.45V471.92l.84-.62a29.88,29.88,0,0,1,2,3.05c2.39,4.9,4.17,10.19,7.19,14.65,3.45,5.09,8.72,7.75,15.24,6.66,4.12-.69,7-3,8.1-7s.44-8-3-10.63c-2.66-2.06-5.87-3.42-8.86-5-4.24-2.31-8.7-4.27-12.71-6.92-8.93-5.9-11.66-19.53-6.31-29.91,4.6-8.92,15-12.3,25.69-8.33l1,.38C206.21,430.52,206.21,430.52,210.46,425.73Z" transform="translate(-30.75 -383.99)"/><path class="cls-7" d="M428.57,499.45V471.78l1.19-.55a27,27,0,0,1,1.83,2.9c2.2,4.73,3.77,9.86,6.6,14.16,3.7,5.61,9.2,8.75,16.35,7.26a9.18,9.18,0,0,0,7.45-6.8c1.08-3.9.6-7.72-2.63-10.42a45.82,45.82,0,0,0-7.75-4.75c-4.14-2.24-8.42-4.21-12.55-6.48-13.72-7.54-12.33-27.07-5-34.89,5.48-5.87,12.32-7.09,19.86-5.36a32.81,32.81,0,0,1,5.85,2.13c3.07,1.36,5.68,1.64,7.09-2.23.11-.32.75-.45,1.67-.95v22.65l-.71.61a21.68,21.68,0,0,1-2-2.73c-1.93-3.78-3.18-8.1-5.83-11.26a19.65,19.65,0,0,0-9.08-5.5,8.17,8.17,0,0,0-10.13,4.52,9.61,9.61,0,0,0,2.14,11.74,42.83,42.83,0,0,0,8.14,4.83c3.82,1.91,7.94,3.26,11.63,5.37,10.45,6,13.8,20.12,7.79,31.92-5.1,10-16.83,13.82-28.07,9.08-.9-.38-1.77-.83-2.65-1.25-5.82-2.8-5.81-2.8-9.19,2.61C430.33,498.72,429.76,498.83,428.57,499.45Z" transform="translate(-30.75 -383.99)"/><path class="cls-7" d="M419.54,426.32v7.45c0,4.16.08,8.31-.06,12.46,0,.84-.85,1.65-1.31,2.48a11.54,11.54,0,0,1-1.59-2c-1.88-3.8-3.09-8.12-5.68-11.33a19.68,19.68,0,0,0-8.94-5.74,8.38,8.38,0,0,0-10.53,4.41c-2,4-1.25,9.21,2.4,12,2.86,2.19,6.3,3.65,9.54,5.32,4,2.06,8.24,3.73,12.08,6.06,10.33,6.27,9.83,22.66,5.57,30.85-4.75,9.12-15.84,13.11-26.23,9.42-2.06-.73-4-1.8-6-2.7-4.29-1.93-5.14-1.6-7.25,2.7a13,13,0,0,1-1.48,1.83,11.66,11.66,0,0,1-.75-2.65c-.05-7.57-.07-15.14,0-22.72,0-.87.75-1.73,1.15-2.6.59.78,1.51,1.47,1.74,2.34,1.72,6.74,4.35,13,9.63,17.76,3.61,3.28,7.82,4.91,12.79,4,4.26-.77,7.18-3.14,8.17-7.38s.06-8.15-3.6-10.8a61.71,61.71,0,0,0-7.65-4.24c-3.95-2.09-8.06-3.89-11.86-6.22-11.35-7-14-24.14-5.38-34.34,5.1-6,11.81-7.4,19.28-6.09a23,23,0,0,1,4.18,1.31C414.1,430.34,414.09,430.36,419.54,426.32Z" transform="translate(-30.75 -383.99)"/><path class="cls-4" d="M219.81,427.89q11.88-.75,23.77-1.48a5.92,5.92,0,0,1,1.42.41v3.83q0,27.14,0,54.25c0,4.29-.4,8.94,5.85,9.57.46,0,.79,1.36,1.42,2.55H218.52c1.16-1.31,1.74-2.59,2.47-2.68,4.28-.52,5.5-3.54,5.52-7q.19-24.56,0-49.12c0-3.48-1.33-6.43-5.43-7.22-.82-.16-1.44-1.36-2.15-2.07Z" transform="translate(-30.75 -383.99)"/><path class="cls-7" d="M223.62,403.69c0-6.91,4.67-11.86,11.16-11.79,6.29.08,11,5.07,11,11.71a11.07,11.07,0,1,1-22.13.08Z" transform="translate(-30.75 -383.99)"/></svg>